# xmcd
#
# Track frame offsets:
#	150
#	14703
#	31792
#	48473
#	64394
#	80415
#	98456
#	113458
#	127917
#	146216
#	160078
#
# Disc length: 2344 seconds
#
# Revision: 1
# Processed by: cddbd v1.5.2PL0 Copyright (c) Steve Scherf et al.
# Submitted via: audiograbber 1.83.01
#
DISCID=8809260b
DTITLE=Julianne Hough - Julianne Hough
DYEAR=2008
DGENRE=Country
TTITLE0=That Song In My Head
TTITLE1=You, You, You
TTITLE2=Hide Your Matches
TTITLE3=My Hallelujah Song
TTITLE4=Jimmy Ray McGee
TTITLE5=Dreaming Under The Same Moon 
TTITLE6=About Life
TTITLE7=Hello
TTITLE8=Help Me, Help You
TTITLE9=Love Yourself
TTITLE10=I'd Just Be With You
EXTD=
EXTT0=
EXTT1=
EXTT2=
EXTT3=
EXTT4=
EXTT5=
EXTT6=
EXTT7=
EXTT8=
EXTT9=
EXTT10=
PLAYORDER=
